<svg xmlns="http://www.w3.org/2000/svg" viewBox="0 0 4975.5 1568"><path d="M780 1323.7c-383.2 65.6-739.5-226.1-746.3-619.9C27.5 340.1 329.9 32.9 712 56.6c200.6 12.4 362.7 102.7 479.8 266.3 117.1 163.7 145.4 345.8 97.5 539.5 143.6 101.4 201.5 235.4 159.7 408.4-46.5 142.9-143.6 230.1-291.7 254.2-157 25.5-309-58.3-377.3-201.3zm369.8-507.6c1.4-5.2 2.9-9.2 3.6-13.2 33.9-192.4-32-384.2-189.7-503.6-40.5-30.7-85.7-55.1-133.8-71.4-179.9-60.9-393.3-5.7-521 134.7S146.4 720.7 224 894c73.7 164.7 244.8 280.4 424.7 289.9 20.9 1.1 41.8-.3 62.8-1.3 11.6-.5 23.2-2.1 35.2-3.2.6-109.2 38.6-201 118.7-273.3 80.2-72.4 175.5-100.4 284.4-90zm-44.1 145.3c-76.8.7-152.7 45.6-187.9 114.3-40.1 78.4-24.5 183.6 39.5 244.8 65.7 62.8 169.2 79.7 249.7 35.1 76.3-42.3 120.7-135.7 105.1-221.6-15.6-85.9-89.9-157.8-176.2-170.5-10.1-1.6-20.1-2.2-30.2-2.1zM2843.6 820v230.3c0 3.8.2 7.6-.2 11.3-1.2 10.9-7.3 17.6-18.4 17.8-28.8.5-57.6.5-86.4 0-11.9-.2-17.8-6.8-18.8-18.7-.3-3.3-.1-6.6-.1-9.9V444.7c0-3.3-.1-6.6.1-9.9.8-12.7 7-18.8 19.4-19.6 1.9-.1 3.8 0 5.7 0 88.7 0 177.5-.3 266.2.1 85.4.4 160.9 52.4 191.5 130.8 31.7 81.2 8 169.6-60.4 226.1-19.4 16-41 28.4-65.7 39.2 2.6 5 4.8 9.4 7.1 13.8 38.9 72.3 77.9 144.5 116.8 216.8 2.5 4.6 5.2 9.1 6.6 14 3.7 12.3-2.5 23-15.2 23.2-28.8.6-57.7 1.2-86.3-1-19.3-1.4-34-13.5-42.9-31.1-16.5-32.4-79.4-157-94.1-187.1-13.5-27.5-35.1-40.8-65.7-40.1-19 .4-38.2.1-59.2.1zm1.8-290.1v187c2.6.4 4.4 1 6.1 1 50.4.1 100.9 1.3 151.3-.2 61-1.8 104.9-67.1 85.3-124.4-12.8-37.6-48.9-63.7-89.6-64-47.6-.4-95.2-.1-142.9-.1-3.1 0-6.3.4-10.2.7zm-1082.9-85.2c0-3.3-.1-6.6.1-9.9.7-12.3 7.1-19.2 19.5-19.5 16-.4 32.1-.6 48.1.2 27.3 1.4 52.1 23.7 57 51 1.4 7.8 1.7 16 1.7 23.9.1 107.1.1 214.3.1 321.4 0 18.9 1.1 37.6 6.4 56 16.6 56.9 67 102 141.8 97.5 61.4-3.7 113.1-48.8 124.3-110.9 2.4-13.4 3.8-263.6 3-374.9-.2-23.6 16.5-53.7 46.8-62 4.1-1.1 8.3-2 12.5-2.1 15.6-.3 31.2-.5 46.7-.2 13.3.3 19.8 6.8 20.6 20 .2 3.3.1 6.6.1 9.9 0 127.4.1 254.8 0 382.3-.1 131-92.8 238.8-222.3 258.8-127.6 19.7-248.7-50.6-291.1-169-10.1-28.2-15.3-57.3-15.2-87.4 0-63.3-.1-320-.1-385.1zM3987.6 959h-283.3c-2.9 6.1-6 12.3-8.9 18.6-9.4 20.6-18.7 41.2-28.1 61.8-12.2 26.7-32.7 40.5-62.4 40.3-17.5-.2-34.9.1-52.4-.1-21.5-.2-28.1-10.5-19-30.1 47-101.9 240-519.7 289.5-626.7 7.2-15.5 11.4-17.9 26.9-17.5 9.7.2 15.7 4.5 19.7 13.3 10 22.4 20.4 44.6 30.6 66.9 85.1 186.1 170.3 372.2 255.4 558.3 2 4.3 4.2 8.5 5.6 13 3.5 11.9-2.2 22-14.3 22.3-25.4.6-51.1 1.4-76.3-1.2-20.3-2.1-35.1-15.6-43.9-34.2-11.5-24.3-22.4-48.8-33.6-73.3-1.6-3.4-3.3-6.8-5.5-11.4zm-47.2-107.3c-31.7-69.8-62.7-138.2-93.8-206.6-1-.1-2.1-.2-3.1-.3-30.5 68.5-61 137-92.1 206.8 63.7.1 125.3.1 189 .1zm742.3-445.8c68.7-.1 130.6 21.5 186.9 60 16.1 11 18.1 22.2 7.7 38.5-4.8 7.5-9.8 15-14.9 22.4-18.2 25.9-49.7 35-78.9 22.6-7.4-3.1-14.4-7.1-21.6-10.6-20.4-10-41.3-18.8-63.7-22.8-23.4-4.2-46.1-2-67.2 9.7-36.9 20.5-46.5 62.1-22.4 96.7 9.9 14.2 22.8 25.4 37.8 33.6 20.2 11 41.2 20.9 62 30.8 26.3 12.6 53.7 23.5 79 37.8 20.4 11.5 40.1 25.3 57.3 41 91.3 83.4 78 222.1-26.6 288.1-33.9 21.4-71.2 32.6-110.9 34.8-73.2 4.1-141.6-11.4-203-52.9-10.1-6.8-19.2-15.2-28.5-23.2-7.5-6.5-8.3-14.6-3.6-23 6-10.7 11.6-21.7 18.6-31.7 16.6-23.7 52.4-31.4 78.8-17.9 17.6 9 35.1 18.4 53.2 26.3 21.4 9.2 43.8 14.7 67.4 13.4 14.9-.8 28.9-4.6 41.8-12 37.5-21.2 48.5-64.4 26-101.2-9.6-15.6-22.6-28.2-38.3-37.1-22.1-12.5-45.1-23.6-67.8-34.8-23.2-11.5-47.4-21.3-69.8-34.2-18.2-10.5-35.8-23.2-51.3-37.4-104.6-96.3-68.3-260.4 66.9-304.4 27.6-9 56-12.9 85.1-12.5z"/></svg>