<svg xmlns="http://www.w3.org/2000/svg" viewBox="-5703 3467.9 1513 1568"><path d="M-4923 4791.6c-383.2 65.6-739.5-226.1-746.3-619.9-6.2-363.7 296.2-670.9 678.3-647.2 200.6 12.4 362.7 102.7 479.8 266.3 117.1 163.7 145.4 345.8 97.5 539.5 143.6 101.4 201.5 235.4 159.7 408.4-46.5 142.9-143.6 230.1-291.7 254.2-157 25.5-309-58.3-377.3-201.3zm369.8-507.6c1.4-5.2 2.9-9.2 3.6-13.2 33.9-192.4-32-384.2-189.7-503.6-40.5-30.7-85.7-55.1-133.8-71.4-179.9-60.9-393.3-5.7-521 134.7-127.7 140.4-162.5 358.1-84.9 531.4 73.7 164.7 244.8 280.4 424.7 289.9 20.9 1.1 41.8-.3 62.8-1.3 11.6-.5 23.2-2.1 35.2-3.2.6-109.2 38.6-201 118.7-273.3 80.2-72.4 175.5-100.4 284.4-90zm-44.1 145.3c-76.8.7-152.7 45.6-187.9 114.3-40.1 78.4-24.5 183.6 39.5 244.8 65.7 62.8 169.2 79.7 249.7 35.1 76.3-42.3 120.7-135.7 105.1-221.6-15.6-85.9-89.9-157.8-176.2-170.5-10.1-1.6-20.1-2.2-30.2-2.1z"/></svg>