<svg xmlns="http://www.w3.org/2000/svg" viewBox="0 0 1049 317.8"><path d="M166.4 271.1C85.1 285 9.6 223.1 8.2 139.7 6.9 62.5 71-2.6 152 2.4c42.5 2.7 76.9 21.8 101.7 56.4s30.8 73.3 20.7 114.4c30.5 21.5 42.7 49.9 33.9 86.6-9.9 30.3-30.5 48.8-61.8 53.9-33.4 5.4-65.6-12.3-80.1-42.6zm78.4-107.7c.3-1 .6-2 .8-2.8 7.2-40.7-6.8-81.5-40.3-106.7-8.6-6.5-18.2-11.6-28.4-15.1-38.2-12.9-83.3-1.2-110.5 28.5s-34.5 75.9-18 112.7c15.6 34.9 51.9 59.5 90.1 61.5 4.4.2 8.8-.1 13.3-.2 2.4-.1 4.9-.5 7.4-.7.1-23.2 8.1-42.6 25.1-58 17.2-15.5 37.5-21.4 60.5-19.2zm-9.3 30.8c-16.3.1-32.4 9.7-39.8 24.2-8.5 16.6-5.2 38.9 8.4 51.9 14 13.3 35.8 16.9 53 7.4 16.2-9 25.6-28.7 22.2-47s-19.1-33.4-37.4-36.2c-2.2-.1-4.3-.3-6.4-.3zm368.4-29.9v51.2c-.2 2.3-1.5 3.7-4 3.7-6.1.1-12.2.1-18.3 0-2.6 0-3.7-1.4-4-4-.1-.7 0-1.4 0-2.1V82.5c.1-2.7 1.5-4 4.1-4.2h1.2c18.9 0 37.6-.1 56.4 0 18.2.1 34.1 11.1 40.6 27.7 6.8 17.2 1.7 36-12.8 48-4.1 3.4-8.7 6.1-14 8.3.6 1 1 2 1.5 2.9 8.3 15.4 16.5 30.6 24.8 46 .6.9 1 2 1.4 3 .8 2.6-.6 4.9-3.3 4.9-6.1.1-12.2.2-18.3-.2-4.1-.3-7.2-2.9-9.1-6.6-3.5-6.9-16.9-33.3-19.9-39.7-2.9-5.8-7.4-8.6-14-8.5-3.7.2-7.8.2-12.3.2zm.4-61.5v39.7c.6.1.9.2 1.3.2 10.7 0 21.4.2 32.1 0 12.9-.3 22.2-14.2 18-26.4-2.7-7.9-10.4-13.5-19-13.6-10.1-.1-20.1 0-30.3 0-.6-.1-1.3.1-2.1.1zM374.7 84.7v-2.1c.1-2.6 1.5-4.1 4.2-4.2 3.4-.1 6.8-.1 10.2 0 5.8.3 11.1 5 12.1 10.8.3 1.6.3 3.4.3 5.1v68.1c0 4 .2 7.9 1.4 11.9 3.5 12.1 14.2 21.6 30 20.7 13-.8 24-10.4 26.3-23.5.5-2.8.8-55.9.6-79.5 0-5 3.5-11.4 9.9-13.2.8-.2 1.7-.5 2.7-.5 3.3-.1 6.6-.1 9.9 0 2.8.1 4.2 1.4 4.4 4.2v83.1c0 27.8-19.7 50.6-47.1 54.8-27 4.2-52.7-10.7-61.7-35.8-2.1-5.9-3.3-12.1-3.3-18.5.1-13.2.1-67.6.1-81.4zm471.7 109.1h-60.1c-.6 1.3-1.3 2.6-1.9 4-2 4.4-4 8.7-5.9 13.2-2.6 5.7-7 8.6-13.3 8.5h-11.1c-4.5 0-5.9-2.2-4.1-6.4 10-21.6 50.9-110.2 61.3-132.9 1.5-3.3 2.4-3.8 5.7-3.7 2.1 0 3.4.9 4.2 2.8 2.1 4.8 4.3 9.4 6.5 14.2 18 39.5 36.1 78.9 54.1 118.4.5.9.9 1.7 1.2 2.8.7 2.6-.5 4.7-3 4.8-5.4.1-10.8.3-16.2-.2-4.3-.5-7.4-3.3-9.3-7.2-2.4-5.1-4.8-10.4-7.1-15.6-.2-1.1-.5-1.8-1-2.7zm-10-22.8c-6.8-14.8-13.3-29.3-19.9-43.8-.2 0-.5 0-.7-.1-6.5 14.5-12.9 29.1-19.6 43.9h40.2zm157.4-94.5c14.5 0 27.7 4.5 39.6 12.7 3.4 2.3 3.8 4.7 1.6 8.1-1 1.6-2.1 3.1-3.1 4.8-3.8 5.5-10.6 7.4-16.8 4.8-1.5-.7-3-1.5-4.5-2.2-4.3-2.1-8.7-4-13.5-4.9-5-.9-9.8-.5-14.2 2.1-7.8 4.3-9.9 13.2-4.8 20.5 2.1 3 4.9 5.4 8 7.1 4.3 2.3 8.7 4.4 13.2 6.5 5.6 2.7 11.4 5 16.8 8 4.3 2.4 8.5 5.4 12.1 8.7 19.3 17.7 16.5 47.1-5.6 61.1-7.2 4.5-15.1 6.9-23.5 7.3-15.5.8-30-2.4-43.1-11.2-2.1-1.4-4.1-3.3-6.1-4.9-1.6-1.4-1.7-3.1-.8-4.9 1.3-2.2 2.4-4.7 4-6.8 3.5-5 11.1-6.6 16.8-3.8 3.7 1.9 7.4 4 11.3 5.6 4.5 2 9.3 3.1 14.3 2.8 3.1-.1 6.2-.9 8.8-2.6 7.9-4.5 10.2-13.6 5.5-21.4-2-3.3-4.8-5.9-8.1-7.9-4.7-2.7-9.5-5-14.4-7.3-4.9-2.4-10-4.5-14.8-7.2-3.8-2.2-7.6-4.9-10.8-7.9-22.2-20.4-14.4-55.2 14.2-64.5 5.8-1.8 11.7-2.8 17.9-2.6z" fill="#131f39"/></svg>